<svg width="664" height="87" viewBox="0 0 664 87" fill="none" xmlns="http://www.w3.org/2000/svg">
<path d="M590.901 0.720703V85.5762L590.323 86.1543H332.863L332.092 85.3838V1.29883L332.863 0.142578H590.323L590.901 0.720703ZM159.156 8.05078C165.658 8.49124 172.738 7.55527 179.157 8.05078C179.57 8.07831 180.067 8.05009 180.343 8.43555L197.341 85.5L197.286 85.4727H180.866L177.505 69.4209L160.562 69.4756L157.393 85.4727H140.973C140.973 83.4628 141.441 81.4802 141.854 79.5254C144.141 68.4848 147.007 57.4994 149.486 46.4863C152.104 34.8676 154.252 23.0558 157.117 11.4922C157.42 10.2807 157.724 7.80299 159.156 8.05078ZM48.5957 22.5039H32.5615V85.4717H16.1133V22.5039H0.0791016V8.0498H48.5957V22.5039ZM73.6436 85.4717H57.8027L57.2236 84.8662V8.62793L57.8027 8.0498H73.6436V85.4717ZM114.14 8.0498C118.024 8.04981 124.829 11.0229 127.832 13.5283C136.703 20.8796 138.108 35.2521 133.452 45.3291C131.551 49.4589 128.686 52.5426 124.994 55.1582L137.007 85.4717H119.622L110.034 60.0586H102.21V85.4717H85.79V8.62793L86.3691 8.0498H114.14ZM239.555 48.3027V8.0498H255.589V85.4717H240.519L219.993 43.6221V85.4717H203.546V8.62793L204.124 8.0498H219.801L239.555 48.3027ZM280.441 8.02051C286.943 8.46096 294.023 7.52499 300.442 8.02051C300.856 8.04804 301.351 8.02098 301.627 8.40625L318.626 85.4707H302.757C302.261 85.0853 302.096 84.5068 301.958 83.9287C301.159 80.9276 300.774 77.5132 300.112 74.457C299.947 73.7134 299.093 69.4762 298.817 69.4189L281.874 69.4736L278.705 85.4707H262.285C262.478 81.1482 263.993 76.9079 264.93 72.668C269.31 52.8169 273.443 32.8828 278.127 13.1143C278.347 12.2056 278.981 8.90183 279.284 8.40625C279.532 7.99332 280.028 8.02051 280.441 8.02051ZM645.095 9.91406C645.095 9.91406 645.508 10.2174 645.894 10.2725C655.481 11.5941 663.03 18.4772 663.691 28.4717C664.38 38.6314 663.14 49.535 663.691 59.7773C662.782 68.5603 656.253 74.3698 647.795 75.9668C647.382 76.0494 645.232 76.3799 645.095 76.3799H619.473V9.91406H645.095ZM412.291 9.91602C409.123 9.39303 404.66 10.3015 401.326 9.91602C400.114 9.91639 400.086 14.845 399.921 15.9463C397.91 29.0792 396.229 42.2947 394.438 55.4551C393.667 61.1819 392.235 67.4601 391.767 73.1318C391.684 74.0953 391.739 75.0589 391.739 76.0225H404.247C405.322 69.1668 406.368 62.3383 407.332 55.4551C408.489 47.1678 409.399 38.8255 410.528 30.5107C411.327 24.7565 412.677 18.5617 413.2 12.835C413.283 12.0091 413.31 11.1831 413.2 10.3848C412.842 10.3845 412.456 9.97088 412.264 9.94336L412.291 9.91602ZM485.852 63.1094C484.557 63.1094 484.612 68.1209 484.446 69.1396C484.143 71.1219 483.592 73.1319 483.372 75.1416L483.896 76.0225H505.991V75.9951C506.542 71.9204 507.644 67.8454 507.506 63.7432L506.982 63.1094H485.852ZM568.806 9.94336C568.806 9.94336 567.98 10.7147 567.925 11.0176C565.693 25.5549 563.929 40.0922 561.918 54.6846C561.229 59.6404 560.265 64.6516 559.632 69.6074C559.356 71.7274 559.135 73.875 559.19 76.0225L559.219 75.9951H571.147C572.663 74.6461 572.25 71.59 572.553 69.5801C575.142 52.565 577.346 35.4118 579.605 18.3691C579.798 16.8274 581.011 12.0646 580.681 10.9902C580.598 10.7151 579.883 9.94467 579.771 9.94336H568.806ZM344.6 63.082C343.525 63.0822 343.69 66.4689 343.58 67.1572C343.139 70.0756 342.313 73.0217 342.451 75.9951H364.547L365.07 75.334L366.695 64.4033L366.116 63.082H344.6ZM410.335 63.082C409.371 63.9906 409.206 65.5598 409.013 66.8262C408.655 68.9185 408.379 71.6994 408.187 73.8193C408.131 74.535 408.214 75.2786 408.187 75.9668H427.361V75.9951L428.877 63.7148L428.326 63.082H410.335ZM481.168 9.91602C478.082 9.42044 473.812 10.2739 470.616 9.91602C469.624 10.3015 469.458 10.6873 469.293 11.7061C466.18 29.8776 464.252 48.848 461.8 67.1572C461.414 70.048 460.477 72.9942 460.67 75.9951H472.985L473.563 75.0312C475.575 60.3014 477.449 45.5715 479.46 30.8691C480.397 24.1237 481.802 17.3503 482.188 10.5498C482.16 10.3571 481.333 9.91606 481.195 9.91602H481.168ZM454.939 9.91602C451.881 9.393 447.583 10.3015 444.388 9.91602C443.12 9.91619 442.818 12.67 442.652 13.6611C439.704 32.2732 437.472 51.2157 435.158 69.8828C434.91 71.8924 434.029 73.8196 434.414 75.9668H445.572C449.567 72.3876 453.783 69.0286 457.723 65.4219C458.219 64.9532 459.981 63.0551 458.494 63.0547H449.292C448.603 61.4303 449.457 59.7779 449.649 58.126C451.027 46.0391 452.791 33.9247 454.416 21.8379C454.636 20.1584 456.427 11.0465 455.904 10.3018C455.546 10.3018 455.16 9.88886 454.967 9.86133L454.939 9.91602ZM542.578 9.88867C541.752 10.4944 541.393 11.458 541.228 12.4492C538.169 30.8685 536.131 50.1688 533.734 68.6982C533.459 70.7907 532.852 72.9112 532.604 75.0312L533.184 75.9668H544.92C545.526 75.4436 545.746 74.5628 545.856 73.792C546.958 67.1291 547.702 60.1632 548.584 53.4453C548.777 52.0412 548.088 50.0862 549.989 49.7559C551.89 49.4256 558.089 50.4444 558.998 48.9854C559.522 46.4799 559.659 43.9188 560.018 41.3857C560.183 40.2293 561.037 38.137 560.568 37.2285C560.485 37.0905 559.825 36.4584 559.77 36.458H551.366L551.394 36.5127C551.119 36.509 551.394 33.2085 551.422 32.8232C552.248 26.0228 553.654 19.3321 554.149 12.4766C554.205 11.8435 554.7 11.4307 554.342 10.6875C554.259 10.5223 553.598 9.88867 553.543 9.88867H542.578ZM374.74 36.5127C373.445 36.5127 373.5 41.5243 373.335 42.543C371.765 52.9226 369.919 63.6327 368.872 74.0674C368.817 74.6731 368.541 74.7281 369.285 75.2236L382.014 64.1006C384.19 62.421 383.611 59.1997 383.997 56.6943C384.906 50.8025 386.256 44.6629 386.725 38.6885C386.78 37.8625 386.862 37.0356 386.118 36.54H374.768L374.74 36.5127ZM526.93 36.5127C523.789 35.9896 519.297 36.8982 515.964 36.5127C514.504 36.5132 514.339 42.8734 514.174 44.1123C512.714 53.7762 510.785 64.2111 509.903 73.875C509.848 74.5081 509.683 75.0037 510.509 74.8662C511.886 74.6184 517.81 68.5884 519.298 67.2393C520.786 65.8902 522.493 64.5409 524.036 63.2744C525.221 59.117 525.386 54.7392 525.992 50.4717C526.626 45.9841 527.535 41.469 527.894 36.9814C527.508 37.0365 527.123 36.5965 526.93 36.5684V36.5127ZM645.701 29.2705C645.288 24.0392 641.816 24.2038 637.463 24.3965V61.9248C641.1 62.0625 644.709 62.5028 645.591 58.125C645.205 48.7638 646.417 38.5216 645.701 29.2705ZM168.688 30.4893L162.627 56.8936C162.38 57.1689 162.903 57.6639 163.068 57.6914H174.777L175.355 56.3701L169.487 29.9385L168.688 30.4893ZM283.912 56.8916C283.665 57.167 284.188 57.6619 284.354 57.6895H296.09L296.668 56.3682C294.795 48.6315 293.225 40.812 291.406 33.0479C291.158 31.9741 290.993 30.1016 290.028 29.5234L283.912 56.8916ZM363.913 11.7607C363.858 11.5679 363.389 10.9627 363.169 11.3477L349.862 23.4619L349.201 25.5273L346.005 49.4531C346.39 49.3982 346.776 49.8381 346.969 49.8662L346.941 49.8115C349.751 50.2796 353.746 49.4537 356.722 49.8115C361.047 46.3975 365.345 42.7626 369.45 39.0732C369.726 38.8254 370.993 37.614 370.993 37.5039C371.076 37.1184 370.552 36.54 370.414 36.54H361.405L360.8 35.1914C361.599 28.914 362.701 22.6366 363.527 16.3867C363.665 15.4506 364.106 12.394 363.913 11.7607ZM490.811 23.4346C490.122 24.3432 490.48 25.4452 490.342 26.4639C489.185 34.0627 487.835 41.6891 487.284 49.3154C487.615 49.3156 488.111 49.7559 488.221 49.7559H497.615C497.615 49.7559 498.964 49.1508 499.186 48.9854C502.795 45.5438 506.762 42.4878 510.316 38.9912C511.198 38.1377 512.272 38.2475 511.887 36.458H502.106L502.079 36.5127L505.22 11.6787L504.448 11.2656L490.811 23.4346ZM102.21 47.1465H109.842C110.338 47.1464 113.479 45.9069 114.085 45.5215C117.033 43.6217 118.796 40.2629 119.044 36.7939C119.43 31.9206 119.043 26.5237 114.69 23.4951C114.193 23.1643 110.917 21.7066 110.613 21.7061H102.21V47.1465ZM614.379 10.4922V29.6543C614.379 30.0122 614.02 32.4359 613.91 33.0967C612.698 40.2271 605.315 45.1553 598.51 45.8438C595.066 46.2016 596.058 44.5771 596.058 41.8242C596.333 40.8882 598.867 40.8873 599.804 40.502C601.732 39.7311 603.165 37.8313 603.826 35.9316C604.267 34.6652 605.149 32.3531 604.02 31.417H596.581L596.002 30.8389V10.4922L596.581 9.91406H613.8L614.379 10.4922ZM368.845 9.91602C367.247 9.91602 367.605 12.6417 367.439 13.6055C366.916 16.5514 366.116 19.5526 366.364 22.5811L366.888 23.2148H388.02C388.028 23.211 388.983 22.7729 389.011 22.5811C389.121 20.8741 389.177 18.864 389.425 17.1846C389.7 15.3124 390.389 13.0272 390.472 11.1826C390.472 10.7696 389.893 9.99864 389.59 9.91602H368.845ZM509.71 9.91602C509.706 9.91982 508.883 10.6881 508.828 10.9902L507.203 22.8018C507.561 22.7468 508.056 23.2142 508.167 23.2148H529.299C530.373 23.2143 530.208 19.8279 530.318 19.1396C530.539 17.7077 531.971 11.1273 531.42 10.3564C531.062 10.3564 530.676 9.9437 530.483 9.91602H509.71Z" fill="white"/>
</svg>
