<?xml version="1.0" encoding="utf-8"?>
<!-- Generator: Adobe Illustrator 25.3.0, SVG Export Plug-In . SVG Version: 6.00 Build 0)  -->
<svg version="1.1" id="Layer_1" xmlns="http://www.w3.org/2000/svg" xmlns:xlink="http://www.w3.org/1999/xlink" x="0px" y="0px"
	 viewBox="0 0 1080 167" style="enable-background:new 0 0 1080 167;" xml:space="preserve">
<style type="text/css">
	.st0{fill:#FFFFFF;}
</style>
<g id="easypay_white_svg_2_" transform="translate(-2039.922 -3177.435)">
	<path id="Path_8251_2_" class="st0" d="M2327.5,3213.7l-52,97.4h22.2l16-30h44.7l16.5,30h30.2l-53.6-97.4L2327.5,3213.7z
		 M2347.7,3261.8l-23.7,0l11.7-21.9L2347.7,3261.8z"/>
	<path id="Path_8252_2_" class="st0" d="M2430.4,3216.1c-3,1.6-5.7,3.8-7.9,6.4c-2.3,2.7-4.1,5.7-5.3,9c-1.3,3.4-2,7.1-1.9,10.7
		c0,3.7,0.6,7.4,1.8,10.9c1.2,3.4,2.9,6.6,5.1,9.4c2.2,2.8,4.8,5.1,7.9,6.9c3.2,1.8,6.7,2.8,10.4,2.8l60.1,0.1
		c1.3,0,2.6,0.2,3.9,0.7c1.1,0.4,2.1,1.1,2.9,1.9c0.8,0.8,1.5,1.8,1.9,2.9c0.5,1.2,0.8,2.6,0.7,3.9c0,1.4-0.3,2.9-0.8,4.2
		c-0.5,1.2-1.2,2.4-2.1,3.4c-0.8,0.9-1.9,1.7-3,2.2c-1.1,0.5-2.3,0.8-3.5,0.8l-85.5-0.1v19h99.5c2.7-0.2,5.2-1,7.5-2.4
		c3-1.7,5.7-4.1,7.9-6.8c2.2-2.8,3.9-6,5.1-9.4c1.2-3.5,1.9-7.1,1.9-10.8c0.1-3.7-0.6-7.3-1.9-10.8c-1.2-3.3-3-6.3-5.2-9
		c-2.2-2.6-4.9-4.8-7.9-6.4c-3.2-1.6-6.7-2.5-10.2-2.6h-60.1c-1.2,0-2.4-0.3-3.6-0.8c-1.1-0.5-2.2-1.3-3-2.3c-0.9-1-1.6-2.1-2.1-3.3
		c-0.5-1.4-0.8-2.9-0.7-4.3c0-1.3,0.2-2.6,0.7-3.8c0.5-1.1,1.1-2.1,1.9-2.9c0.8-0.8,1.8-1.4,2.9-1.8c1.2-0.5,2.6-0.7,3.9-0.7
		l85.4,0.1l0.1-19.4l-96.5-0.2C2437,3213.5,2433.5,3214.4,2430.4,3216.1z"/>
	<path id="Path_8253_2_" class="st0" d="M2174.9,3248.6L2174.9,3248.6c1.4-3.1,3.4-6,5.9-8.4c2.4-2.3,5.1-4.2,8.2-5.5
		c3.1-1.3,6.4-2,9.7-2l66.4,0.1v-19.4l-76.7-0.1c-8.1,0-16.1,2.4-22.9,6.8c-3.4,2.1-6.4,4.7-9.1,7.7c-2.8,3-5.1,6.3-7,9.9
		c-2,3.7-3.5,7.6-4.5,11.6c-1.1,4.2-1.6,8.6-1.6,12.9c0,4.4,0.5,8.7,1.6,13c1,4,2.5,8,4.5,11.6c1.9,3.6,4.2,6.9,7,9.9
		c5.4,6,12.3,10.3,19.9,12.7c3.9,1.1,8,1.7,12.1,1.7l76.7-0.1v-19.2h-66.5c-3.3,0.1-6.6-0.6-9.7-1.9c-3-1.3-5.8-3.2-8.2-5.5
		c-2.4-2.4-4.4-5.2-5.9-8.3c-0.6-1.3-1.1-2.7-1.6-4.1l91.9,0.1v-19.3l-91.9-0.1C2173.7,3251.2,2174.2,3249.9,2174.9,3248.6z"/>
	<path id="Path_8254_2_" class="st0" d="M2618.5,3246l-33-32.3H2547l55.1,53.7l0,43.7h28.6l0-46.6l56-50.8h-32.8L2618.5,3246z"/>
	<path id="Path_8255_2_" class="st0" d="M2867.4,3213.6h-23.1l-51.9,97.5h19.9l16.4-30.9l47.1,0.1l17,30.9h28.1l-53-96.6
		L2867.4,3213.6z M2866.5,3263.1l-28.6,0l14.1-26.4L2866.5,3263.1z"/>
	<path id="Path_8256_2_" class="st0" d="M2999,3213.6l-36.7,33.5l-34.3-33.5h-35.7l54.5,53.1v44.4h26.8l0-47.3l55.2-50.1
		L2999,3213.6z"/>
	<path id="Path_8257_2_" class="st0" d="M2805.8,3262.7L2805.8,3262.7c2.2-2.8,3.9-6,5-9.3c1.2-3.9,1.8-7.9,1.8-11.9
		c0-3.1-0.5-6.2-1.4-9.1l-1.5-4h-0.1c-1.1-2.2-2.4-4.2-3.9-6c-2.1-2.5-4.7-4.6-7.7-6.2c-3-1.6-6.3-2.5-9.7-2.5l-91.4-0.1v97.5h24.2
		l0.1-39.2h66.9c3.5,0,7-0.8,10-2.5C2801.1,3267.6,2803.7,3265.4,2805.8,3262.7z M2787.7,3242.1c0,1.4-0.3,2.7-0.8,4l-0.7,1.6
		c-0.3,0.6-0.7,1.1-1.1,1.7c-0.2,0.3-0.4,0.5-0.7,0.7c-0.8,0.9-1.9,1.7-3,2.2l-0.4,0.2c-1.4,0.6-2.9,0.9-4.3,0.9l-55.6-0.1v-22.7
		l55.7,0.1c1.5,0,3.1,0.3,4.5,0.8c1.2,0.5,2.3,1.2,3.2,2.1c1,1,1.7,2.1,2.3,3.4c0.6,1.5,0.9,3.1,0.8,4.7L2787.7,3242.1z"/>
</g>
</svg>
